<?xml version="1.0" encoding="UTF-8"?>
<svg enable-background="new 0 0 496 496" version="1.1" viewBox="0 0 496 496" xml:space="preserve"
     xmlns="http://www.w3.org/2000/svg">
<path d="m468.91 292.05c6.2427 2.7638 12.165 5.329 17.679 8.7184 4.2425 2.6076 6.5004 6.0213 6.7766 11.356 0.90552 17.488 0.9321 34.932 0.074707 52.43-0.34146 6.968-3.9413 10.953-9.2928 13.475-14.194 6.6875-28.633 12.856-42.981 19.215-11.651 5.1637-23.321 10.284-34.966 15.461-13.596 6.0438-27.319 11.824-40.721 18.273-16.088 7.7406-32.705 14.261-48.886 21.811-15.67 7.3107-31.38 15.056-48.118 19.728-8.2728 2.3091-16.716 3.7599-25.956 1.4753-13.449-3.3252-25.918-8.6238-38.507-14.023-18.522-7.9436-37.316-15.252-55.865-23.132-14.138-6.0064-28.033-12.583-42.121-18.713-9.6967-4.2192-19.561-8.0511-29.307-12.159-11.714-4.9365-23.395-9.9496-35.064-14.992-7.2778-3.1448-14.476-6.4754-21.765-9.5927-7.1566-3.0606-11.022-8.2682-11.029-16.147-0.014146-16.166 0.40282-32.346-0.13604-48.494-0.50451-15.119 6.654-19.895 17.372-24.677 5.153-2.2992 11.008-3.3144 15.899-7.8433-9.9132-4.469-19.138-8.7932-28.517-12.753-2.7385-1.1561-4.8318-2.4896-4.9061-5.4969-0.069708-2.8216 1.8506-4.2059 4.4113-5.3405 12.835-5.6866 25.785-11.09 38.721-16.532 11.125-4.6801 22.607-8.5401 33.44-13.915 0.87556-0.4344 1.8421-0.84656 1.9842-2.346-5.3392-4.4308-12.132-6.4904-18.521-8.6902-8.3137-2.8624-16.257-6.5549-24.472-9.6011-8.5076-3.1545-16.824-6.8621-25.084-10.634-6.3798-2.9133-10.185-7.9025-10.199-15.211-0.033955-16.666-0.006622-33.332-0.033221-49.998-0.013708-8.5884 4.8804-14.088 11.976-17.487 8.6238-4.131 17.487-7.8615 26.495-11.065 11.065-3.9345 21.718-8.839 32.676-13.009 13.724-5.2225 27.44-10.472 41.077-15.918 11.663-4.6579 23.177-9.6897 34.817-14.408 11.015-4.4647 22.138-8.6633 33.16-13.112 12.846-5.1846 25.694-10.372 38.423-15.834 7.3706-3.1629 15.109-5.1589 22.907-5.9311 5.046-0.4997 10.682 0.79957 15.484 2.719 19.926 7.9656 39.646 16.448 59.421 24.79 18.548 7.8245 37.04 15.78 55.611 23.549 14.786 6.1862 29.701 12.065 44.472 18.287 16.895 7.1175 33.655 14.555 50.563 21.639 3.6402 1.5253 7.6335 2.2795 10.935 4.5652 6.4184 4.4431 7.8908 11.356 8.1024 18.385 0.35599 11.822 0.32806 23.67-6.1e-5 35.494-0.25424 9.1615-2.5478 16.642-12.684 20.899-12.483 5.2421-25.089 10.187-37.568 15.437-9.3026 3.9135-18.588 7.8675-27.868 11.836-0.90442 0.3868-1.8018 0.9343-1.632 2.5527 16.177 6.968 32.406 14.218 49.149 20.317 8.3455 3.0398 16.344 7.0813 24.362 10.953 5.2382 2.5289 5.343 6.1801 0.12689 8.9293-6.8786 3.6254-13.989 6.8347-21.117 9.9554-4.527 1.982-9.094 3.8069-13.56 7.0557 4.296 3.9799 9.9303 4.7708 14.761 7.7486m-249.72-244.38c-8.781 4.2197-18.136 7.0048-27.03 11.004-10.982 4.9384-22.378 8.9486-33.549 13.474-9.4877 3.8436-18.856 7.984-28.374 11.751-13.03 5.157-26.298 9.7361-39.199 15.191-20.075 8.4892-40.388 16.365-60.685 24.284-6.1636 2.4047-10.359 6.4718-10.233 10.938 0.17574 6.2092 5.08 7.6507 9.6665 9.9085 5.3732 2.6451 11.169 4.0141 16.563 6.5468 7.8999 3.7093 15.851 7.3122 24.185 10.068 7.9665 2.6339 15.889 5.5484 23.515 9.0303 12.473 5.6947 25.166 10.87 38.017 15.54 13.044 4.7401 25.397 11.087 38.658 15.357 10.797 3.4762 21.149 8.4001 31.556 13.003 11.487 5.0807 23.37 9.1427 35.269 12.962 6.8703 2.2054 14.058 4.203 21.965 2.2775 9.7111-2.3651 18.955-5.6011 28.06-9.5872 11.047-4.8367 22.261-9.292 33.383-13.959 6.8562-2.8773 13.657-5.8862 20.516-8.758 10.351-4.3344 20.763-8.5244 31.09-12.916 11.704-4.9773 23.606-9.4566 35.217-14.696 7.7776-3.5097 16.015-6.1974 23.911-9.4532 10.515-4.3356 20.993-8.8011 31.517-13.143 5.3392-2.2026 10.739-4.3671 15.782-7.1461 4.6647-2.5704 4.5487-5.4476 0.26556-8.121-1.1199-0.69901-2.2805-1.3687-3.4973-1.8703-6.0912-2.5106-12.253-4.8535-18.305-7.4541-13.816-5.9369-27.398-12.466-41.418-17.865-14.825-5.7089-29.362-12.104-44.018-18.175-17.225-7.1351-34.358-14.526-51.575-21.708-18.76-7.8262-37.334-16.099-56.058-24.013-8.7806-3.7114-17.756-3.5093-26.599-0.051929-5.9941 2.3434-11.9 4.912-18.597 7.5818m-71.034 326.55c5.7575 2.494 11.487 5.0546 17.279 7.4671 10.039 4.1817 20.206 8.0665 30.154 12.45 13.586 5.9865 27.347 11.382 41.452 16.101 15.55 5.2027 30.048 2.1892 43.749-4.5117 13.52-6.6124 27.48-12.166 41.072-18.585 21.951-10.367 44.403-19.67 66.605-29.506 17.816-7.8935 35.598-15.867 53.355-23.892 11.764-5.317 23.468-10.769 35.175-16.21 2.1066-0.9791 4.5799-2.0479 4.6504-4.7179 0.077118-2.9186-2.5349-3.9963-4.7252-5.231-9.1032-5.1317-19.282-7.9268-28.344-13.173-7.3405-4.2491-14.426-3.2545-21.126 1.7119-0.64798 0.48029-1.5306 0.63648-2.2907 0.974-11.79 5.2357-23.617 10.392-35.356 15.739-12.512 5.6997-24.767 11.997-37.448 17.279-15.708 6.5429-30.729 14.535-46.488 20.991-14.834 6.077-29.135 13.457-43.652 20.304-2.5656 1.2102-5.2882 1.4127-7.7878 0.52637-5.2955-1.8778-10.478-4.0923-15.645-6.3105-11.685-5.0158-23.105-10.762-35.059-15.011-13.105-4.659-25.554-10.79-38.522-15.747-19.417-7.4223-38.51-15.727-57.539-24.115-12.723-5.6089-25.682-10.61-38.517-15.925-4.9507-2.0497-9.9443-5.5588-15.624-3.3263-9.3844 3.6886-18.775 7.4743-27.777 11.988-7.3451 3.6826-7.7026 11.916-1.4146 17.284 2.5545 2.1808 5.5787 3.5682 8.6236 4.8781 8.1965 3.5262 16.412 7.0083 24.629 10.487 9.2782 3.9287 18.474 8.0735 27.874 11.687 10.154 3.9031 20.015 8.4883 30.088 12.577 10.688 4.3385 21.232 9.0828 32.609 13.816m11.899 56.126c4.5629 1.8784 9.1461 3.709 13.684 5.6448 9.8722 4.2109 19.693 8.5422 29.588 12.7 10.517 4.4192 20.924 9.2028 31.713 12.832 5.9897 2.015 12.486 4.1375 18.878 3.4341 7.8396-0.86294 15.442-3.4596 22.759-6.4997 7.0384-2.9242 13.877-6.3243 20.859-9.3895 12.243-5.3748 24.566-10.566 36.781-16.002 8.6171-3.8354 16.932-8.4062 25.701-11.831 12.913-5.0437 25.368-11.097 38.091-16.548 8.4964-3.6401 17.066-7.1516 25.304-11.477 7.4198-3.8963 15.51-6.5026 23.247-9.8119 9.8813-4.2264 19.38-9.3143 29.495-13.029 3.9669-1.4568 6.7879-3.7898 6.6812-8.748-0.20789-9.6579 0.051971-19.325-0.034241-28.987-0.042389-4.7489-1.0342-5.2695-5.423-3.3105-19.898 8.8818-39.783 17.795-59.691 26.655-9.5043 4.23-19.08 8.3006-28.57 12.561-19.613 8.8039-39.179 17.714-58.788 26.527-13.568 6.0982-27.141 12.189-40.778 18.13-9.6635 4.2103-19.192 8.8539-29.902 10.035-9.1881 1.0133-18.103 0.54706-26.895-2.8226-5.0612-1.9397-10.034-4.1865-15.156-5.8549-10.571-3.4435-20.286-8.7995-30.567-12.875-12.117-4.8029-23.993-10.21-36.003-15.284-10.333-4.3654-20.735-8.5657-31.056-12.958-11.555-4.918-23.003-10.087-34.587-14.935-14.777-6.1844-29.614-12.231-44.485-18.186-6.9734-2.7924-13.495-6.774-21.373-8.5547 0 11.716-0.046903 23.008 0.033186 34.298 0.019869 2.8011 2.0207 4.5623 4.2417 5.7851 2.7403 1.5088 5.6295 2.7666 8.5167 3.9851 10.023 4.23 20.117 8.2954 30.103 12.613 11.512 4.9775 22.738 10.683 34.453 15.104 12.52 4.725 24.407 10.864 36.981 15.466 8.6665 3.1711 16.734 7.9328 26.199 11.334m278.08-262.56c-11.919 4.441-23.668 9.2859-35.33 14.372-11.801 5.1468-23.828 9.772-35.687 14.788-14.6 6.1745-29.158 12.471-43.793 18.535-17.51 7.2562-34.503 15.893-52.659 21.448-7.3297 2.2427-15.142 5.0176-22.933 2.8924-5.9045-1.6108-11.957-2.181-17.882-4.0694-13.86-4.4177-27.29-9.9445-40.617-15.532-13.099-5.4921-26.568-10.025-39.515-15.853-12.351-5.5596-25.131-10.026-37.682-15.067-13.162-5.2871-26.207-10.871-39.453-15.962-8.4559-3.25-16.924-6.4456-25.2-10.188-8.6606-3.9162-17.674-7.0532-26.799-10.635-0.46064 1.5008-0.90915 2.2738-0.9017 3.0423 0.095257 9.8174 0.25866 19.634 0.3979 29.451 0.037094 2.6151 1.981 3.9048 3.8808 4.7787 7.3283 3.3709 14.689 6.6947 22.176 9.6916 10.57 4.2311 21.414 7.8032 31.862 12.304 12.572 5.4159 25.502 9.921 37.959 15.653 10 4.6014 20.573 7.9446 30.806 12.058 12.838 5.1599 25.542 10.652 38.389 15.789 15.759 6.3011 31.476 12.75 47.468 18.406 8.0312 2.8403 16.448 5.6724 25.298 3.6348 11.768-2.7093 22.951-7.0995 33.975-11.98 11.763-5.2077 23.61-10.23 35.483-15.182 10.492-4.3765 21.113-8.4467 31.6-12.835 9.4599-3.9588 18.756-8.3114 28.232-12.228 12.964-5.3584 26.144-10.207 39.026-15.75 17-7.3148 34.084-14.411 51.297-21.202 3.2325-1.2752 5.4126-3.1745 5.4209-6.9097 0.017242-7.818 0.097961-15.636 0.07312-23.454-0.008209-2.5853 0.39172-5.2654-0.93115-7.9168-6.6197 1.3327-12.05 5.0166-18.048 7.2519-8.516 3.1737-17.135 6.1166-25.917 10.671m-169.56 177.23c-3.4101 4.9284-6.8201 9.8568-10.23 14.785 0.33313 0.37082 0.66626 0.74167 0.99939 1.1125 4.7731-2.0797 9.482-4.3271 14.34-6.1859 3.8614-1.4776 7.111-3.5902 9.4509-6.9917 21.395-31.102 44.682-60.821 66.799-91.395 0.78412-1.0839 2.0757-2.118 1.4669-4.2366-2.4391 1.6315-5.0799 2.2232-7.3953 3.3277-6.3059 3.0079-13.362 4.3914-17.983 10.833-18.8 26.205-37.999 52.124-57.447 78.75m56.87-42.104c-9.3205 12.933-18.641 25.866-28.385 39.386 4.5606 0.74921 6.9531-1.5682 9.4005-2.9034 5.2421-2.8599 11.452-3.7435 15.426-9.2844 16.534-23.057 33.434-45.852 50.206-68.74 5.807-7.9246 11.63-15.837 18.19-24.769-12.602 3.8355-22.765 7.7977-29.89 18.846-10.501 16.282-22.89 31.346-34.946 47.464m62.698-27.278c8.8172-12.147 17.634-24.295 26.518-36.533-2.3811-1.4072-4.0931-2.4098-5.7963-3.4273-4.3517-2.5997-7.4164-1.3738-10.233 2.7273-16.449 23.949-34.292 46.886-51.271 70.45-3.5882 4.9798-7.8607 9.6018-10.563 15.434 2.8775 0.94791 4.3983-0.86554 6.0813-1.606 7.9399-3.493 16.291-6.2806 21.383-14.31 7.1114-11.215 15.359-21.639 23.881-32.736m-106.6 15.382c-4.7377 6.4265-9.5154 12.824-14.204 19.286-9.1765 12.646-18.308 25.324-27.445 37.999-1.0662 1.4791-2.3136 2.9471-1.0653 4.9601 2.3382 3.7707 9.6568 4.3496 12.448 0.82828 3.8204-4.8196 7.5215-9.7365 11.182-14.68 12.361-16.695 24.783-33.346 36.966-50.171 4.6144-6.3729 10.306-12.058 13.836-20.055-13.452 3.571-25.018 8.5116-31.716 21.834m-6.2347-7.3608c-3.1999 1.3648-6.4662 2.2834-9.9827 2.655-5.6143 0.5932-9.793 3.7368-12.96 8.3641-2.5272 3.6922-5.1822 7.2978-7.8152 10.916-8.3007 11.408-16.648 22.782-24.892 34.231-1.0824 1.5034-2.6776 3.1414-0.93286 5.3331 3.064 3.8491 9.8475 3.9569 12.704 0.10406 8.7962-11.863 17.742-23.621 26.301-35.653 6.0346-8.4843 13.249-16.153 17.578-25.951m140.01-31.849c-12.655 19.048-27.563 36.521-39.69 55.974 2.2283-0.45734 4.0954-1.1281 5.8082-2.0773 7.6888-4.261 16.672-6.1129 21.956-14.587 5.7896-9.2864 12.83-17.791 19.293-26.66 4.064-5.5768 8.0688-11.197 11.898-16.517-0.74939-1.8824-2.1256-1.8338-3.1064-2.3662-7.7415-4.2018-7.7433-4.1784-13.049 2.7102-0.81061 1.0525-1.7298 2.0213-3.1103 3.5242m-254.12 23.797c-7.4846 10.13-14.971 20.259-22.452 30.391-1.0884 1.474-2.423 3.032-1.5885 4.9522 1.7248 3.969 10.859 5.0455 13.423 1.5691 10.531-14.278 20.964-28.629 31.49-42.91 2.1345-2.896 0.82204-4.6541-1.7511-5.9001-7.3841-3.5755-7.715-3.4592-12.817 3.311-1.993 2.6448-3.9176 5.3412-6.3047 8.5871m54.006 34.084c-5.4747 8.9791-13.055 16.561-17.942 25.867 8.4506 6.6444 9.666 6.6261 15.508-0.99274 7.6625-9.9929 15.283-20.025 22.623-30.255 3.692-5.1451 8.4576-9.6588 10.601-15.874-9.6654-4.4285-12.387-3.6766-18.17 4.3625-3.9647 5.5116-8.1402 10.872-12.621 16.892m-114.87-22.903c-1.5719 2.2842-3.1439 4.5685-4.8741 7.0828 3.1463 1.7036 5.5996 3.5068 8.786 4.2684 2.5202 0.60242 3.9869 0.18588 5.4992-1.872 7.1727-9.7603 14.702-19.268 21.622-29.201 3.8289-5.4959 8.5758-10.452 11.548-16.778-1.54-0.97578-2.6265-1.7006-3.747-2.3682-6.4942-3.8694-7.6055-3.5498-12.115 2.6183-8.7203 11.926-17.537 23.782-26.719 36.25m61.167-24.784c2.8593-3.416 0.02327-4.9472-2.3804-5.8491-3.1563-1.1844-6.3184-4.6511-9.8931 0.18018-7.3916 9.99-14.471 20.207-22.091 30.043-3.8791 5.0073-8.5236 9.729-10.846 15.99 1.0304 0.70728 1.9657 1.383 2.9337 2.0081 6.0775 3.9247 8.525 3.6132 12.736-2.081 9.7613-13.199 19.418-26.475 29.541-40.291m20.42 57.369c-1.5136 2.652-4.9868 4.5986-4.1749 8.0604 0.89528 3.8173 9.9016 5.1559 12.302 1.9749 10.198-13.515 20.35-27.065 30.453-40.652 4.705-6.3277 4.3928-5.9063-2.598-9.513-4.4232-2.282-6.1117-0.58667-8.415 2.5897-8.9746 12.377-18.13 24.623-27.567 37.54m-0.7384-34.757c-7.1099 9.7924-14.29 19.535-21.271 29.419-1.4018 1.9847-4.5995 4.1724-0.56578 6.9904 4.0693 2.8429 8.5368 3.1137 10.908-0.039002 10.475-13.926 20.888-27.9 31.235-41.922 1.3766-1.8656 3.8126-4.817 0.031357-5.9918-3.3851-1.0517-6.7522-6.4736-10.834-1.5241-3.2689 3.9636-6.0821 8.303-9.5035 13.067m-73.36-22.263c4.9862-6.7211 10.895-12.804 14.821-20.539-1.3878-0.89064-2.3249-1.554-3.3178-2.1193-6.6991-3.8132-8.2157-3.4522-12.691 2.6406-7.9544 10.829-16.039 21.564-23.903 32.458-2.4616 3.4097-5.5147 6.525-6.9596 10.836 1.6359 1.02 2.9527 2.0498 4.4311 2.7266 6.2409 2.8568 6.6559 2.6898 10.77-2.9371 5.481-7.496 10.995-14.968 16.85-23.066m-9.9308-20.941c0.98984-1.8409 2.9238-3.1898 3.0454-6.5273-7.0326 1.7908-14.063 3.6773-18.387 8.8782-8.2553 9.9285-15.373 20.804-22.93 31.311-1.1781 1.638-1.505 3.3521 0.34858 4.8397 3.2195 2.5839 8.1072 1.8228 10.567-1.5319 8.9265-12.174 17.894-24.318 27.356-36.969m324.83 36.767c-2.4274 3.442-5.4622 6.4879-7.3013 10.596 13.498-0.62668 32.298-16.702 38.897-33.099-1.4644-0.9472-2.9349-2.008-4.5047-2.8923-4.0645-2.2895-7.3097-2.5042-10.369 2.1962-5.0634 7.7788-10.829 15.1-16.722 23.199m-362.94-17.858c2.5782-3.3494 5.6811-6.3613 7.0918-10.641-10.289 0.58415-22.986 11.057-26.047 21.288 7.2945 5.0435 7.3468 5.0849 12.562-1.5192 2.1521-2.7251 4.0255-5.6703 6.393-9.1273m410 1.0599c-6.4706-2.6307-11.28 0.6586-14.039 10.21 5.9622-2.7746 11.453-5.3298 17.499-8.1435-1.4876-0.9035-2.1888-1.3294-3.4597-2.066z"/>
    <path d="m324.07 182.05c10.889-4.5018 21.464-8.7763 31.999-13.145 3.3395-1.3848 6.6219-2.9293 9.8366-4.5832 1.5166-0.7803 2.9833-1.4596 4.7022-1.4258 2.1152 0.04155 4.0927 0.39662 4.5112 2.9541 0.40332 2.465-0.57684 3.9977-3.0119 4.9902-15.763 6.4244-31.709 12.468-47.136 19.624-12.433 5.7671-25.626 9.6718-37.756 16.114-1.8361 0.9752-4.1254 1.1998-6.2433 1.5116-1.9265 0.28357-3.3912-0.9847-3.6931-2.6545-0.42847-2.3703 1.0872-4.4393 3.118-5.1615 9.7868-3.4805 18.93-8.5037 28.849-11.694 4.9943-1.6065 9.6729-4.1945 14.824-6.5295z"/>
    <path d="m239 64.761c12.493 0.022148 24.486 0.044036 36.48 0.069648 1.1659 0.002495 2.3437-0.072609 3.4952 0.06353 2.4425 0.28877 5.5917 0.23282 5.4362 3.6728-0.14047 3.1087-2.7079 4.4142-5.679 4.4761-4.1626 0.086769-8.3279 0.053276-12.492 0.056106-13.159 0.008934-26.319 0.014763-39.478 0.0094-1.3309-5.42e-4 -2.6678-0.019623-3.9912-0.14416-2.7654-0.26027-4.2858-1.9437-4.2974-4.6063-0.012512-2.8785 2.2642-3.4513 4.5362-3.5004 5.1617-0.11145 10.327-0.073334 15.99-0.096786z"/>
    <path d="m400.89 159.1c-2.0926 0.70856-3.8248 1.2771-5.576 1.7791-2.1984 0.63005-3.9206 0.068985-4.9271-2.1191-0.99017-2.1524 0.10001-3.6867 1.8241-4.5249 5.3172-2.5852 10.705-5.0326 16.129-7.3874 3.3308-1.4461 6.8783-2.4161 10.141-3.9894 2.6201-1.2635 4.1756 0.003387 5.5514 1.6956 1.6512 2.0309-0.17709 3.4351-1.4303 4.6102-2.698 2.5298-6.3358 3.511-9.6571 4.6665-4.0637 1.4138-7.8692 3.2486-12.055 5.2694z"/>
    <path d="m266.93 79.871c1.4026 3.6534-1.1513 4.1663-3.2288 4.2143-8.1292 0.18768-16.265 0.1216-24.398 0.078544-1.7534-0.009292-3.4946-0.60538-3.6034-2.6645-0.11458-2.1676 1.0078-4.2793 3.1868-4.4492 8.2693-0.64465 16.57-0.64246 24.847 0.004341 1.3582 0.10613 2.1604 1.4494 3.1967 2.8165z"/>
    <path d="m393.77 388.76c9.2102-4.1935 18.107-8.1679 27.01-12.13 2.3418-1.0421 4.2211-0.51608 5.5161 1.755 1.3796 2.4196 0.47598 4.0593-1.7508 5.353-5.8795 3.4159-12.451 5.2357-18.536 8.2511-19.994 9.9077-41.167 17.208-61.116 27.262-4.2621 2.1482-8.8301 3.6938-13.274 5.4745-2.0832 0.83475-3.9948 0.62689-5.1783-1.5082-1.1477-2.0704-0.54471-3.7226 1.3154-5.2037 4.644-3.6978 10.443-5.0014 15.665-7.408 16.497-7.6025 33.333-14.47 50.349-21.846z"/>
</svg>
